<svg width="16" height="16" viewBox="0 0 16 16" fill="none" xmlns="http://www.w3.org/2000/svg">
<rect width="16" height="16" fill="#C0C0C0"/>
<path fill-rule="evenodd" clip-rule="evenodd" d="M16 16L1 16L1 15L2 15L2 14L14 14L14 2L15 2L15 1L16 1L16 16Z" fill="#808080"/>
<path fill-rule="evenodd" clip-rule="evenodd" d="M0 0H15V1H14V2H2V14H1V15H0V0Z" fill="white"/>
<path fill-rule="evenodd" clip-rule="evenodd" d="M9 8V10H10V11H12V13H4V11H6V10H8V8H9Z" fill="black"/>
<path fill-rule="evenodd" clip-rule="evenodd" d="M7 3H9V8H7V7H5V6H4V5H5V4H7V3Z" fill="#FF0000"/>
</svg>
